<svg width="113" height="30" viewBox="0 0 113 30" fill="none" xmlns="http://www.w3.org/2000/svg">
<g filter="url(#filter0_d_5102_569)">
<path d="M4.41373 18.3589C4.01316 17.6864 4.28979 16.815 5.00488 16.4968L11.3384 13.6778C11.7212 13.5074 12.1625 13.531 12.525 13.7412L16.144 15.8401C16.5046 16.0492 16.7437 16.4178 16.7877 16.8322L17.5267 23.7916C17.6091 24.5676 16.9972 25.2423 16.2168 25.2359L13.2892 25.2118C12.5013 25.2053 11.8984 24.5081 12.0057 23.7275L12.5911 19.4685C12.6392 19.1191 12.4707 18.7755 12.1651 18.5995C11.8591 18.4233 11.4767 18.4504 11.1986 18.668L7.86447 21.2766C7.24462 21.7615 6.33985 21.5924 5.93709 20.9162L4.41373 18.3589Z" fill="white"/>
<path fill-rule="evenodd" clip-rule="evenodd" d="M18.1675 15.6496L23.7643 19.7665C24.0812 19.9996 24.5307 19.9018 24.7221 19.5581L26.1725 16.9526C26.3635 16.6095 26.2107 16.1766 25.8467 16.0294L21.8812 14.4251C21.3069 14.1928 20.931 13.6353 20.931 13.0158C20.931 12.4002 21.3022 11.8453 21.8712 11.6105L25.8506 9.96777C26.2128 9.81824 26.3628 9.38563 26.1708 9.04399L24.7256 6.47219C24.5334 6.13015 24.0852 6.03353 23.7691 6.266L18.1675 10.3864C18.0001 10.5094 17.9013 10.7048 17.9013 10.9125V15.1234C17.9013 15.3312 18.0001 15.5265 18.1675 15.6496ZM17.7804 16.1758C17.4457 15.9296 17.2481 15.5389 17.2481 15.1234V10.9125C17.2481 10.4971 17.4457 10.1064 17.7804 9.86017L23.3821 5.73982C24.0142 5.27486 24.9106 5.46812 25.2951 6.1522L26.7402 8.724C27.1242 9.40727 26.8243 10.2725 26.0998 10.5716L22.1205 12.2142C21.7959 12.3482 21.5842 12.6647 21.5842 13.0158C21.5842 13.3691 21.7986 13.6871 22.1261 13.8196L26.0917 15.4238C26.8197 15.7184 27.1252 16.5841 26.7432 17.2703L25.2928 19.8758C24.9101 20.5632 24.011 20.7589 23.3772 20.2927L17.7804 16.1758Z" fill="#2DEBFC"/>
<path d="M16.1441 10.1478C16.5047 9.93872 16.7438 9.57012 16.7878 9.15565L17.5255 2.20842C17.6083 1.42808 16.9894 0.751295 16.2048 0.764252L13.2768 0.812604C12.4933 0.825542 11.8974 1.52047 12.0041 2.29674L12.591 6.56652C12.6392 6.9168 12.4702 7.26131 12.1638 7.43769C11.8583 7.61349 11.477 7.58734 11.1984 7.37149L7.81845 4.75265C7.19711 4.27122 6.29439 4.44352 5.89404 5.11995L4.40812 7.6306C4.01021 8.30291 4.28742 9.17185 5.00116 9.48952L11.3384 12.3101C11.7213 12.4805 12.1626 12.4569 12.5251 12.2467L16.1441 10.1478Z" fill="#2C85FC"/>
<path d="M47.0726 11.9063V20.4087H50.2361V9.57329H45.629V11.9063H47.0726Z" fill="white"/>
<path d="M46.9735 8.05083C47.2635 8.35395 47.7051 8.50553 48.2982 8.50553C48.8917 8.50553 49.3264 8.35395 49.603 8.05083C49.8933 7.73436 50.038 7.33891 50.038 6.86449C50.038 6.37671 49.8933 5.98122 49.603 5.67814C49.3264 5.36179 48.8917 5.20355 48.2982 5.20355C47.7051 5.20355 47.2635 5.36179 46.9735 5.67814C46.6969 5.98122 46.5584 6.37671 46.5584 6.86449C46.5584 7.33891 46.6969 7.73436 46.9735 8.05083Z" fill="white"/>
<path d="M71.6699 20.358C71.96 20.6612 72.4015 20.8127 72.9946 20.8127C73.5881 20.8127 74.0228 20.6612 74.2994 20.358C74.5897 20.0416 74.7344 19.6461 74.7344 19.1717C74.7344 18.6839 74.5897 18.2884 74.2994 17.9853C74.0228 17.669 73.5881 17.5108 72.9946 17.5108C72.4015 17.5108 71.96 17.669 71.6699 17.9853C71.3933 18.2884 71.2548 18.6839 71.2548 19.1717C71.2548 19.6461 71.3933 20.0416 71.6699 20.358Z" fill="white"/>
<path d="M36.0596 20.1712C36.9558 20.5798 38.0564 20.7842 39.3612 20.7842C40.5872 20.7842 41.6415 20.5932 42.525 20.2107C43.4081 19.8286 44.0868 19.2946 44.5613 18.6094C45.0493 17.9105 45.2929 17.0998 45.2929 16.1771C45.2929 15.2809 45.0627 14.5229 44.6012 13.9033C44.1528 13.2706 43.527 12.7763 42.7226 12.4205C41.9185 12.0513 40.9893 11.8206 39.9347 11.7285L38.8275 11.6296C38.1684 11.5767 37.6939 11.3989 37.4039 11.0956C37.1138 10.7925 36.9688 10.4366 36.9688 10.0281C36.9688 9.71154 37.0482 9.42165 37.2059 9.15802C37.3643 8.88116 37.6015 8.66371 37.9179 8.50547C38.2475 8.34736 38.6495 8.26826 39.1241 8.26826C39.6248 8.26826 40.0402 8.36042 40.3697 8.54509C40.4422 8.58411 40.5111 8.62582 40.5758 8.67008L40.5915 8.68105C40.6157 8.69777 40.6395 8.71512 40.6627 8.73262C40.8629 8.88563 41.0223 9.06696 41.1408 9.27661C41.312 9.5667 41.3982 9.88954 41.3982 10.2455H44.5613C44.5613 9.29637 44.3438 8.47252 43.9091 7.77395C43.4741 7.06215 42.848 6.51513 42.0308 6.13274C41.2264 5.73729 40.2577 5.53957 39.1241 5.53957C38.043 5.53957 37.1073 5.72423 36.3163 6.09326C35.5256 6.44922 34.906 6.96329 34.4579 7.63544C34.0226 8.30775 33.805 9.10534 33.805 10.0281C33.805 11.3066 34.2339 12.3347 35.0905 13.1125C35.9472 13.8903 37.0942 14.3384 38.531 14.457L39.6185 14.5559C40.5014 14.635 41.1408 14.813 41.5364 15.0897C41.9315 15.3533 42.1295 15.7158 42.1295 16.1771C42.1295 16.3892 42.0948 16.588 42.0253 16.7738C41.9737 16.9117 41.9031 17.0423 41.8133 17.1658C41.602 17.4428 41.2924 17.66 40.8838 17.8184C40.4752 17.9764 39.9677 18.0555 39.3612 18.0555C38.689 18.0555 38.142 17.9634 37.7203 17.7788C37.2984 17.5809 36.9822 17.3239 36.7709 17.0077C36.5733 16.6912 36.4747 16.3486 36.4747 15.9794H33.3308C33.3308 16.9153 33.5614 17.7458 34.0226 18.4709C34.484 19.1826 35.163 19.7496 36.0596 20.1712Z" fill="white"/>
<path d="M78.8828 20.1712C79.7789 20.5798 80.8796 20.7842 82.1844 20.7842C83.4104 20.7842 84.4647 20.5932 85.3482 20.2107C86.2313 19.8286 86.91 19.2946 87.3845 18.6094C87.8725 17.9105 88.1161 17.0998 88.1161 16.1771C88.1161 15.2809 87.8859 14.5229 87.4244 13.9033C86.9759 13.2706 86.3502 12.7763 85.5458 12.4205C84.7417 12.0513 83.8125 11.8206 82.7579 11.7285L81.6507 11.6296C80.9916 11.5767 80.5171 11.3989 80.227 11.0956C79.937 10.7925 79.792 10.4366 79.792 10.0281C79.792 9.71154 79.8714 9.42165 80.0291 9.15802C80.1875 8.88116 80.4246 8.66371 80.7411 8.50547C81.0707 8.34736 81.4727 8.26826 81.9473 8.26826C82.4479 8.26826 82.8634 8.36042 83.1929 8.54509C83.2654 8.58411 83.3343 8.62582 83.399 8.67008L83.4147 8.68105C83.4388 8.69777 83.4627 8.71512 83.4859 8.73262C83.6861 8.88563 83.8455 9.06696 83.964 9.27661C84.1352 9.5667 84.2214 9.88954 84.2214 10.2455H87.3845C87.3845 9.29637 87.167 8.47252 86.7323 7.77395C86.2973 7.06215 85.6712 6.51513 84.854 6.13274C84.0496 5.73729 83.0809 5.53957 81.9473 5.53957C80.8662 5.53957 79.9305 5.72423 79.1395 6.09326C78.3488 6.44922 77.7292 6.96329 77.2811 7.63544C76.8457 8.30775 76.6282 9.10534 76.6282 10.0281C76.6282 11.3066 77.057 12.3347 77.9137 13.1125C78.7704 13.8903 79.9174 14.3384 81.3541 14.457L82.4417 14.5559C83.3245 14.635 83.964 14.813 84.3595 15.0897C84.7547 15.3533 84.9526 15.7158 84.9526 16.1771C84.9526 16.3892 84.918 16.588 84.8485 16.7738C84.7969 16.9117 84.7263 17.0423 84.6365 17.1658C84.4252 17.4428 84.1156 17.66 83.707 17.8184C83.2984 17.9764 82.7909 18.0555 82.1844 18.0555C81.5122 18.0555 80.9652 17.9634 80.5435 17.7788C80.1216 17.5809 79.8054 17.3239 79.5941 17.0077C79.3965 16.6912 79.2979 16.3486 79.2979 15.9794H76.154C76.154 16.9153 76.3846 17.7458 76.8457 18.4709C77.3072 19.1826 77.9862 19.7496 78.8828 20.1712Z" fill="white"/>
<path d="M57.2947 20.5468C56.2006 20.5468 55.3175 20.4152 54.6453 20.1513C53.9728 19.8746 53.4787 19.42 53.1622 18.7874C52.8591 18.1414 52.7076 17.2713 52.7076 16.1771V11.8865H51.0664V9.57323H52.7076V6.64694H55.6535V9.57323H58.8173V11.8865H55.6535V16.2959C55.6535 16.81 55.7855 17.2053 56.049 17.482C56.3257 17.7458 56.7147 17.8775 57.2157 17.8775H58.8173V20.5468H57.2947Z" fill="white"/>
<path d="M106.551 20.5468C105.457 20.5468 104.573 20.4152 103.901 20.1513C103.229 19.8746 102.735 19.42 102.418 18.7874C102.115 18.1414 101.964 17.2713 101.964 16.1771V11.8865H100.322V9.57323H101.964V6.64694H104.91V9.57323H108.073V11.8865H104.91V16.2959C104.91 16.81 105.042 17.2053 105.305 17.482C105.582 17.7458 105.971 17.8775 106.472 17.8775H108.073V20.5468H106.551Z" fill="white"/>
<path fill-rule="evenodd" clip-rule="evenodd" d="M62.6261 20.3097C63.3378 20.6262 64.1553 20.7843 65.0779 20.7843C65.9872 20.7843 66.7916 20.6262 67.4902 20.3097C68.1888 19.9933 68.7689 19.5517 69.23 18.985C69.6915 18.4181 70.0015 17.7724 70.1592 17.0473H67.2528C67.1212 17.3769 66.8707 17.6535 66.5016 17.8775C66.1325 18.1019 65.6577 18.2139 65.0779 18.2139C64.7187 18.2139 64.3976 18.1715 64.1148 18.0862C63.8996 18.0216 63.7065 17.9324 63.5357 17.8184C63.1402 17.5549 62.8502 17.1855 62.6657 16.7112C62.6144 16.576 62.5706 16.4346 62.5337 16.2874C62.4962 16.1382 62.4658 15.983 62.4429 15.8214H70.3571V14.7537C70.3571 13.765 70.1461 12.8555 69.7245 12.0251C69.3025 11.1813 68.6895 10.5025 67.8857 9.98847C67.0947 9.4612 66.1191 9.19757 64.9591 9.19757C64.0759 9.19757 63.2849 9.35581 62.5863 9.67215C61.9014 9.97524 61.3279 10.3905 60.8664 10.9177C60.4052 11.445 60.0492 12.0449 59.7984 12.7172C59.5613 13.3761 59.4427 14.0681 59.4427 14.7931V15.1886C59.4427 15.8873 59.5613 16.5727 59.7984 17.2449C60.0492 17.904 60.4052 18.5036 60.8664 19.0442C61.341 19.5716 61.9272 19.9933 62.6261 20.3097ZM62.4975 13.8663C62.5063 13.8244 62.5154 13.7832 62.5255 13.7426C62.553 13.6308 62.5847 13.5237 62.6206 13.4213C62.6408 13.363 62.6624 13.3062 62.6856 13.251C62.8832 12.7632 63.1732 12.3942 63.5553 12.1437C63.6984 12.0501 63.8532 11.974 64.0194 11.9154C64.299 11.8172 64.6125 11.768 64.9591 11.768C65.4999 11.768 65.9477 11.8933 66.3037 12.1437C66.6727 12.3809 66.9497 12.7302 67.1342 13.1916C67.1492 13.2288 67.1633 13.2667 67.177 13.3051C67.1989 13.3662 67.2191 13.429 67.2381 13.4933C67.2658 13.5889 67.2903 13.688 67.3119 13.7903C67.3276 13.8658 67.341 13.943 67.353 14.0221H62.4671C62.4762 13.9693 62.4864 13.9174 62.4975 13.8663Z" fill="white"/>
<path fill-rule="evenodd" clip-rule="evenodd" d="M92.0747 20.3097C92.7864 20.6262 93.6039 20.7843 94.5265 20.7843C95.4358 20.7843 96.2402 20.6262 96.9388 20.3097C97.6374 19.9933 98.2175 19.5517 98.6786 18.985C99.1401 18.4181 99.4501 17.7724 99.6078 17.0473H96.7014C96.5698 17.3769 96.3193 17.6535 95.9502 17.8775C95.5811 18.1019 95.1063 18.2139 94.5265 18.2139C94.1673 18.2139 93.8462 18.1715 93.5634 18.0862C93.3482 18.0216 93.1551 17.9324 92.9843 17.8184C92.5888 17.5549 92.2988 17.1855 92.1143 16.7112C92.063 16.576 92.0192 16.4346 91.9823 16.2874C91.9448 16.1382 91.9144 15.983 91.8915 15.8214H99.8057V14.7537C99.8057 13.765 99.5947 12.8555 99.1731 12.0251C98.7511 11.1813 98.1381 10.5025 97.3343 9.98847C96.5433 9.4612 95.5678 9.19757 94.4077 9.19757C93.5245 9.19757 92.7335 9.35581 92.0349 9.67215C91.35 9.97524 90.7765 10.3905 90.315 10.9177C89.8539 11.445 89.4979 12.0449 89.247 12.7172C89.0099 13.3761 88.8914 14.0681 88.8914 14.7931V15.1886C88.8914 15.8873 89.0099 16.5727 89.247 17.2449C89.4979 17.904 89.8539 18.5036 90.315 19.0442C90.7896 19.5716 91.3758 19.9933 92.0747 20.3097ZM91.9461 13.8663C91.9549 13.8244 91.964 13.7832 91.9742 13.7426C92.0016 13.6308 92.0333 13.5237 92.0692 13.4213C92.0894 13.363 92.111 13.3062 92.1342 13.251C92.3318 12.7632 92.6218 12.3942 93.0039 12.1437C93.147 12.0501 93.3018 11.974 93.468 11.9154C93.7476 11.8172 94.0611 11.768 94.4077 11.768C94.9485 11.768 95.3963 11.8933 95.7523 12.1437C96.1213 12.3809 96.3983 12.7302 96.5828 13.1916C96.5979 13.2288 96.6119 13.2667 96.6256 13.3051C96.6475 13.3662 96.6677 13.429 96.6867 13.4933C96.7145 13.5889 96.7389 13.688 96.7605 13.7903C96.7762 13.8658 96.7896 13.943 96.8017 14.0221H91.9157C91.9248 13.9693 91.935 13.9174 91.9461 13.8663Z" fill="white"/>
</g>
<defs>
<filter id="filter0_d_5102_569" x="0.225586" y="0.764069" width="111.848" height="32.4719" filterUnits="userSpaceOnUse" color-interpolation-filters="sRGB">
<feFlood flood-opacity="0" result="BackgroundImageFix"/>
<feColorMatrix in="SourceAlpha" type="matrix" values="0 0 0 0 0 0 0 0 0 0 0 0 0 0 0 0 0 0 127 0" result="hardAlpha"/>
<feOffset dy="4"/>
<feGaussianBlur stdDeviation="2"/>
<feComposite in2="hardAlpha" operator="out"/>
<feColorMatrix type="matrix" values="0 0 0 0 0 0 0 0 0 0 0 0 0 0 0 0 0 0 0.25 0"/>
<feBlend mode="normal" in2="BackgroundImageFix" result="effect1_dropShadow_5102_569"/>
<feBlend mode="normal" in="SourceGraphic" in2="effect1_dropShadow_5102_569" result="shape"/>
</filter>
</defs>
</svg>
